<svg xmlns="http://www.w3.org/2000/svg" viewBox="0 0 94.46 96.59"><defs><style>.cls-1{fill:#fff;}.cls-1,.cls-2{fill-rule:evenodd;}.cls-2{fill:#0096fb;}</style></defs><title>wizLogo</title><g id="Layer_1-2"><path class="cls-1" d="M42 22l-4.2-7.22h-8.42q2.09 3.62 4.18 7.22z"/><path class="cls-2" d="M69.14 22h-20.78l-4.17-7.22h29.13l-4.18 7.22zM86.13 14.78h8.33l-15.24 26.39h-8.35l15.26-26.39zM81.3 37.57l-7.86 13.43.01.01-1.39 2.36-.01.02-2.82 4.77-1.42-2.48-10-17.38 2.18-3.77-.01-.01 4.18-7.22.62-1.08 3.89-6.7h-.01l2.74-4.74h8.33l-4.17 7.22-9.42 16.32 3.19 5.55 3.63-6.3h8.34zM47.23 96.59l19-33-3.09-5.22-18.14-31.07h-8.4c6.75 11.59 14.4 24.79 21.19 36.55l-3.2 5.54c-10.2-17.67-21.51-37.13-31.59-54.61h-8.28q11.8 20.46 23.63 40.9l12.07 20.93-3.19 5.53-27.08-46.91-11.83-20.45h-8.32l23.61 40.9 23.62 40.91z"/><path class="cls-1" d="M47.23 0a41.77 41.77 0 0 1 30 12.68h-9.62a38.6 38.6 0 0 0-50-.41 41.8 41.8 0 0 1 29.62-12.27zM83.51 62.84a41.79 41.79 0 0 1-25.67 19.58l4.84-8.42a38.58 38.58 0 0 0 25-43 41.76 41.76 0 0 1-4.18 31.79zM11 62.84a41.72 41.72 0 0 1-4.12-32l4.84 8.38a38.6 38.6 0 0 0 24.67 43.14 41.72 41.72 0 0 1-25.39-19.52z"/><path class="cls-2" d="M55.09 19.24h-8.32l7.82 13.56 3.45-6 .72-1.26-3.67-6.33zm2.7 19.09l.53.92.12-2-.65 1.13z"/></g></svg>